<svg xmlns="http://www.w3.org/2000/svg" xmlns:xlink="http://www.w3.org/1999/xlink" width="500" zoomAndPan="magnify" viewBox="0 0 375 374.999991" height="500" preserveAspectRatio="xMidYMid meet" version="1.0"><defs><g/><clipPath id="7dd3e7ac2c"><path d="M 27.460938 148.421875 L 91.210938 148.421875 L 91.210938 229.210938 L 27.460938 229.210938 Z M 27.460938 148.421875 " clip-rule="nonzero"/></clipPath><clipPath id="a8170a3587"><path d="M 28 150 L 96 150 L 96 225 L 28 225 Z M 28 150 " clip-rule="nonzero"/></clipPath><clipPath id="ad55b3622f"><path d="M 30.703125 148.339844 L 101.691406 154.460938 L 95.574219 225.445312 L 24.585938 219.328125 Z M 30.703125 148.339844 " clip-rule="nonzero"/></clipPath><clipPath id="1675e5d1e4"><path d="M 30.703125 148.339844 L 101.691406 154.460938 L 95.574219 225.445312 L 24.585938 219.328125 Z M 30.703125 148.339844 " clip-rule="nonzero"/></clipPath><clipPath id="8ace3b3e6a"><path d="M 27.460938 148.339844 L 91.171875 148.339844 L 91.171875 211.070312 L 27.460938 211.070312 Z M 27.460938 148.339844 " clip-rule="nonzero"/></clipPath><clipPath id="0b72f41958"><path d="M 59.28125 148.339844 C 41.707031 148.339844 27.460938 162.382812 27.460938 179.707031 C 27.460938 197.027344 41.707031 211.070312 59.28125 211.070312 C 76.855469 211.070312 91.101562 197.027344 91.101562 179.707031 C 91.101562 162.382812 76.855469 148.339844 59.28125 148.339844 Z M 59.28125 148.339844 " clip-rule="nonzero"/></clipPath><clipPath id="fc6f6fe000"><path d="M 27.460938 148.34375 L 91.210938 148.34375 L 91.210938 211.339844 L 27.460938 211.339844 Z M 27.460938 148.34375 " clip-rule="nonzero"/></clipPath><clipPath id="a4b997ad3b"><path d="M 59.277344 148.34375 C 41.707031 148.34375 27.460938 162.386719 27.460938 179.707031 C 27.460938 197.027344 41.707031 211.066406 59.277344 211.066406 C 76.847656 211.066406 91.09375 197.027344 91.09375 179.707031 C 91.09375 162.386719 76.847656 148.34375 59.277344 148.34375 Z M 59.277344 148.34375 " clip-rule="nonzero"/></clipPath><clipPath id="18630ed183"><path d="M 38.078125 158.503906 L 80.484375 158.503906 L 80.484375 200.910156 L 38.078125 200.910156 Z M 38.078125 158.503906 " clip-rule="nonzero"/></clipPath><clipPath id="127aaaa6f4"><path d="M 59.28125 158.503906 C 47.570312 158.503906 38.078125 167.996094 38.078125 179.707031 C 38.078125 191.417969 47.570312 200.910156 59.28125 200.910156 C 70.992188 200.910156 80.484375 191.417969 80.484375 179.707031 C 80.484375 167.996094 70.992188 158.503906 59.28125 158.503906 Z M 59.28125 158.503906 " clip-rule="nonzero"/></clipPath></defs><rect x="-37.5" width="450" fill="#ffffff" y="-37.499999" height="449.999989" fill-opacity="1"/><rect x="-37.5" width="450" fill="#0d203b" y="-37.499999" height="449.999989" fill-opacity="1"/><g clip-path="url(#7dd3e7ac2c)"><path fill="#ffffff" d="M 59.277344 229.210938 C 53.1875 229.210938 27.460938 197.78125 27.460938 180.238281 C 27.460938 162.695312 41.734375 148.421875 59.277344 148.421875 C 76.820312 148.421875 91.09375 162.695312 91.09375 180.238281 C 91.09375 197.78125 65.367188 229.210938 59.277344 229.210938 Z M 59.277344 163.074219 C 49.8125 163.074219 42.113281 170.773438 42.113281 180.238281 C 42.113281 189.703125 49.8125 197.402344 59.277344 197.402344 C 68.742188 197.402344 76.441406 189.703125 76.441406 180.238281 C 76.441406 170.773438 68.742188 163.074219 59.277344 163.074219 Z M 59.277344 163.074219 " fill-opacity="1" fill-rule="nonzero"/></g><g clip-path="url(#a8170a3587)"><g clip-path="url(#ad55b3622f)"><g clip-path="url(#1675e5d1e4)"><path fill="#45cb7b" d="M 71.953125 204.3125 L 87.875 223.234375 C 89.453125 225.109375 92.253906 225.347656 94.128906 223.773438 C 96.003906 222.195312 96.246094 219.394531 94.667969 217.519531 L 78.753906 198.609375 C 82.667969 194.144531 85.246094 188.441406 85.792969 182.074219 C 87.164062 166.195312 75.382812 152.191406 59.5 150.824219 C 43.621094 149.453125 29.621094 161.234375 28.25 177.113281 C 26.882812 192.996094 38.664062 206.996094 54.542969 208.367188 C 60.871094 208.910156 66.898438 207.371094 71.953125 204.3125 Z M 58.738281 159.667969 C 69.738281 160.613281 77.898438 170.3125 76.949219 181.3125 C 76.003906 192.3125 66.304688 200.472656 55.304688 199.523438 C 44.304688 198.574219 36.144531 188.875 37.09375 177.878906 C 38.042969 166.878906 47.742188 158.71875 58.738281 159.667969 Z M 58.738281 159.667969 " fill-opacity="1" fill-rule="evenodd"/></g></g></g><g clip-path="url(#8ace3b3e6a)"><g clip-path="url(#0b72f41958)"><path fill="#ffffff" d="M 27.460938 148.339844 L 91.171875 148.339844 L 91.171875 211.070312 L 27.460938 211.070312 Z M 27.460938 148.339844 " fill-opacity="1" fill-rule="nonzero"/></g></g><g clip-path="url(#fc6f6fe000)"><g clip-path="url(#a4b997ad3b)"><path stroke-linecap="butt" transform="matrix(0.75, 0, 0, 0.75, 27.461216, 148.345361)" fill="none" stroke-linejoin="miter" d="M 42.421504 -0.00214754 C 18.99442 -0.00214754 -0.000371302 18.721811 -0.000371302 41.815561 C -0.000371302 64.909311 18.99442 83.628061 42.421504 83.628061 C 65.848587 83.628061 84.843379 64.909311 84.843379 41.815561 C 84.843379 18.721811 65.848587 -0.00214754 42.421504 -0.00214754 Z M 42.421504 -0.00214754 " stroke="#000000" stroke-width="0.2" stroke-opacity="1" stroke-miterlimit="4"/></g></g><g clip-path="url(#18630ed183)"><g clip-path="url(#127aaaa6f4)"><path fill="#0d203b" d="M 38.078125 158.503906 L 80.484375 158.503906 L 80.484375 200.910156 L 38.078125 200.910156 Z M 38.078125 158.503906 " fill-opacity="1" fill-rule="nonzero"/></g></g><g fill="#ffffff" fill-opacity="1"><g transform="translate(101.855873, 212.058656)"><g><path d="M 16.53125 -38.453125 L 16.53125 -25.96875 L 38.390625 -25.96875 L 38.390625 -17.203125 L 16.53125 -17.203125 L 16.53125 0 L 5.59375 0 L 5.59375 -47.234375 L 41.296875 -47.234375 L 41.296875 -38.453125 Z M 16.53125 -38.453125 "/></g></g></g><g fill="#ffffff" fill-opacity="1"><g transform="translate(144.967946, 212.058656)"><g><path d="M 4.859375 -36.296875 L 15.390625 -36.296875 L 15.390625 0 L 4.859375 0 Z M 10.125 -41.359375 C 8.1875 -41.359375 6.609375 -41.921875 5.390625 -43.046875 C 4.179688 -44.171875 3.578125 -45.566406 3.578125 -47.234375 C 3.578125 -48.890625 4.179688 -50.28125 5.390625 -51.40625 C 6.609375 -52.53125 8.1875 -53.09375 10.125 -53.09375 C 12.050781 -53.09375 13.617188 -52.550781 14.828125 -51.46875 C 16.046875 -50.394531 16.65625 -49.050781 16.65625 -47.4375 C 16.65625 -45.675781 16.046875 -44.222656 14.828125 -43.078125 C 13.617188 -41.929688 12.050781 -41.359375 10.125 -41.359375 Z M 10.125 -41.359375 "/></g></g></g><g fill="#ffffff" fill-opacity="1"><g transform="translate(165.275831, 212.058656)"><g><path d="M 26.921875 -36.84375 C 31.421875 -36.84375 35.050781 -35.488281 37.8125 -32.78125 C 40.582031 -30.082031 41.96875 -26.082031 41.96875 -20.78125 L 41.96875 0 L 31.4375 0 L 31.4375 -19.15625 C 31.4375 -22.039062 30.804688 -24.191406 29.546875 -25.609375 C 28.285156 -27.023438 26.46875 -27.734375 24.09375 -27.734375 C 21.4375 -27.734375 19.320312 -26.910156 17.75 -25.265625 C 16.175781 -23.617188 15.390625 -21.179688 15.390625 -17.953125 L 15.390625 0 L 4.859375 0 L 4.859375 -36.296875 L 14.90625 -36.296875 L 14.90625 -32.046875 C 16.300781 -33.578125 18.03125 -34.757812 20.09375 -35.59375 C 22.164062 -36.425781 24.441406 -36.84375 26.921875 -36.84375 Z M 26.921875 -36.84375 "/></g></g></g><g fill="#ffffff" fill-opacity="1"><g transform="translate(211.89624, 212.058656)"><g><path d="M 41.828125 -50.0625 L 41.828125 0 L 31.78125 0 L 31.78125 -4.1875 C 29.164062 -1.03125 25.382812 0.546875 20.4375 0.546875 C 17.019531 0.546875 13.925781 -0.21875 11.15625 -1.75 C 8.394531 -3.28125 6.226562 -5.460938 4.65625 -8.296875 C 3.082031 -11.128906 2.296875 -14.414062 2.296875 -18.15625 C 2.296875 -21.882812 3.082031 -25.164062 4.65625 -28 C 6.226562 -30.832031 8.394531 -33.015625 11.15625 -34.546875 C 13.925781 -36.078125 17.019531 -36.84375 20.4375 -36.84375 C 25.070312 -36.84375 28.695312 -35.378906 31.3125 -32.453125 L 31.3125 -50.0625 Z M 22.265625 -8.09375 C 24.921875 -8.09375 27.125 -9.003906 28.875 -10.828125 C 30.632812 -12.648438 31.515625 -15.09375 31.515625 -18.15625 C 31.515625 -21.207031 30.632812 -23.644531 28.875 -25.46875 C 27.125 -27.289062 24.921875 -28.203125 22.265625 -28.203125 C 19.566406 -28.203125 17.335938 -27.289062 15.578125 -25.46875 C 13.828125 -23.644531 12.953125 -21.207031 12.953125 -18.15625 C 12.953125 -15.09375 13.828125 -12.648438 15.578125 -10.828125 C 17.335938 -9.003906 19.566406 -8.09375 22.265625 -8.09375 Z M 22.265625 -8.09375 "/></g></g></g><g fill="#ffffff" fill-opacity="1"><g transform="translate(258.584122, 212.058656)"><g><path d="M 40.890625 -36.296875 L 24.484375 2.21875 C 22.828125 6.40625 20.769531 9.351562 18.3125 11.0625 C 15.863281 12.769531 12.910156 13.625 9.453125 13.625 C 7.554688 13.625 5.6875 13.332031 3.84375 12.75 C 2 12.164062 0.492188 11.359375 -0.671875 10.328125 L 3.171875 2.828125 C 3.984375 3.546875 4.914062 4.109375 5.96875 4.515625 C 7.03125 4.921875 8.078125 5.125 9.109375 5.125 C 10.546875 5.125 11.710938 4.773438 12.609375 4.078125 C 13.515625 3.378906 14.328125 2.222656 15.046875 0.609375 L 15.1875 0.265625 L -0.546875 -36.296875 L 10.328125 -36.296875 L 20.515625 -11.671875 L 30.765625 -36.296875 Z M 40.890625 -36.296875 "/></g></g></g><g fill="#45cb7b" fill-opacity="1"><g transform="translate(298.936549, 212.058656)"><g><path d="M 5.59375 -47.234375 L 16.53125 -47.234375 L 16.53125 0 L 5.59375 0 Z M 5.59375 -47.234375 "/></g></g></g><g fill="#45cb7b" fill-opacity="1"><g transform="translate(321.066062, 212.058656)"><g><path d="M 28.265625 -1.75 C 27.234375 -0.988281 25.960938 -0.414062 24.453125 -0.03125 C 22.953125 0.351562 21.367188 0.546875 19.703125 0.546875 C 15.378906 0.546875 12.035156 -0.554688 9.671875 -2.765625 C 7.316406 -4.972656 6.140625 -8.210938 6.140625 -12.484375 L 6.140625 -27.390625 L 0.546875 -27.390625 L 0.546875 -35.484375 L 6.140625 -35.484375 L 6.140625 -44.328125 L 16.671875 -44.328125 L 16.671875 -35.484375 L 25.703125 -35.484375 L 25.703125 -27.390625 L 16.671875 -27.390625 L 16.671875 -12.609375 C 16.671875 -11.085938 17.0625 -9.910156 17.84375 -9.078125 C 18.632812 -8.242188 19.75 -7.828125 21.1875 -7.828125 C 22.851562 -7.828125 24.269531 -8.273438 25.4375 -9.171875 Z M 28.265625 -1.75 "/></g></g></g></svg>