<svg xmlns="http://www.w3.org/2000/svg" xmlns:xlink="http://www.w3.org/1999/xlink" width="500" zoomAndPan="magnify" viewBox="0 0 375 374.999991" height="500" preserveAspectRatio="xMidYMid meet" version="1.0"><defs><g/><clipPath id="6312a91b1b"><path d="M 27.136719 147.109375 L 90.886719 147.109375 L 90.886719 227.898438 L 27.136719 227.898438 Z M 27.136719 147.109375 " clip-rule="nonzero"/></clipPath><clipPath id="83eb217779"><path d="M 28 151 L 96 151 L 96 226 L 28 226 Z M 28 151 " clip-rule="nonzero"/></clipPath><clipPath id="7396e35e66"><path d="M 30.703125 148.859375 L 101.691406 154.976562 L 95.574219 225.964844 L 24.585938 219.84375 Z M 30.703125 148.859375 " clip-rule="nonzero"/></clipPath><clipPath id="3ac3da6e61"><path d="M 30.703125 148.859375 L 101.691406 154.976562 L 95.574219 225.964844 L 24.585938 219.84375 Z M 30.703125 148.859375 " clip-rule="nonzero"/></clipPath><clipPath id="092c94ac6c"><path d="M 27.136719 147.027344 L 90.847656 147.027344 L 90.847656 209.757812 L 27.136719 209.757812 Z M 27.136719 147.027344 " clip-rule="nonzero"/></clipPath><clipPath id="675654d3bd"><path d="M 58.957031 147.027344 C 41.382812 147.027344 27.136719 161.070312 27.136719 178.394531 C 27.136719 195.714844 41.382812 209.757812 58.957031 209.757812 C 76.53125 209.757812 90.777344 195.714844 90.777344 178.394531 C 90.777344 161.070312 76.53125 147.027344 58.957031 147.027344 Z M 58.957031 147.027344 " clip-rule="nonzero"/></clipPath><clipPath id="a6248e2728"><path d="M 27.136719 147.03125 L 90.886719 147.03125 L 90.886719 210 L 27.136719 210 Z M 27.136719 147.03125 " clip-rule="nonzero"/></clipPath><clipPath id="e810cf36d0"><path d="M 58.953125 147.03125 C 41.382812 147.03125 27.136719 161.074219 27.136719 178.394531 C 27.136719 195.714844 41.382812 209.753906 58.953125 209.753906 C 76.527344 209.753906 90.769531 195.714844 90.769531 178.394531 C 90.769531 161.074219 76.527344 147.03125 58.953125 147.03125 Z M 58.953125 147.03125 " clip-rule="nonzero"/></clipPath><clipPath id="1fcaf30585"><path d="M 37.757812 157.191406 L 80.160156 157.191406 L 80.160156 199.597656 L 37.757812 199.597656 Z M 37.757812 157.191406 " clip-rule="nonzero"/></clipPath><clipPath id="2e9eb9f2e2"><path d="M 58.957031 157.191406 C 47.25 157.191406 37.757812 166.683594 37.757812 178.394531 C 37.757812 190.105469 47.25 199.597656 58.957031 199.597656 C 70.667969 199.597656 80.160156 190.105469 80.160156 178.394531 C 80.160156 166.683594 70.667969 157.191406 58.957031 157.191406 Z M 58.957031 157.191406 " clip-rule="nonzero"/></clipPath></defs><rect x="-37.5" width="450" fill="#ffffff" y="-37.499999" height="449.999989" fill-opacity="1"/><rect x="-37.5" width="450" fill="#ffffff" y="-37.499999" height="449.999989" fill-opacity="1"/><g fill="#0d203b" fill-opacity="1"><g transform="translate(101.855873, 210.746053)"><g><path d="M 16.53125 -38.453125 L 16.53125 -25.96875 L 38.390625 -25.96875 L 38.390625 -17.203125 L 16.53125 -17.203125 L 16.53125 0 L 5.59375 0 L 5.59375 -47.234375 L 41.296875 -47.234375 L 41.296875 -38.453125 Z M 16.53125 -38.453125 "/></g></g></g><g fill="#0d203b" fill-opacity="1"><g transform="translate(144.967946, 210.746053)"><g><path d="M 4.859375 -36.296875 L 15.390625 -36.296875 L 15.390625 0 L 4.859375 0 Z M 10.125 -41.359375 C 8.1875 -41.359375 6.609375 -41.921875 5.390625 -43.046875 C 4.179688 -44.171875 3.578125 -45.566406 3.578125 -47.234375 C 3.578125 -48.890625 4.179688 -50.28125 5.390625 -51.40625 C 6.609375 -52.53125 8.1875 -53.09375 10.125 -53.09375 C 12.050781 -53.09375 13.617188 -52.550781 14.828125 -51.46875 C 16.046875 -50.394531 16.65625 -49.050781 16.65625 -47.4375 C 16.65625 -45.675781 16.046875 -44.222656 14.828125 -43.078125 C 13.617188 -41.929688 12.050781 -41.359375 10.125 -41.359375 Z M 10.125 -41.359375 "/></g></g></g><g fill="#0d203b" fill-opacity="1"><g transform="translate(165.275831, 210.746053)"><g><path d="M 26.921875 -36.84375 C 31.421875 -36.84375 35.050781 -35.488281 37.8125 -32.78125 C 40.582031 -30.082031 41.96875 -26.082031 41.96875 -20.78125 L 41.96875 0 L 31.4375 0 L 31.4375 -19.15625 C 31.4375 -22.039062 30.804688 -24.191406 29.546875 -25.609375 C 28.285156 -27.023438 26.46875 -27.734375 24.09375 -27.734375 C 21.4375 -27.734375 19.320312 -26.910156 17.75 -25.265625 C 16.175781 -23.617188 15.390625 -21.179688 15.390625 -17.953125 L 15.390625 0 L 4.859375 0 L 4.859375 -36.296875 L 14.90625 -36.296875 L 14.90625 -32.046875 C 16.300781 -33.578125 18.03125 -34.757812 20.09375 -35.59375 C 22.164062 -36.425781 24.441406 -36.84375 26.921875 -36.84375 Z M 26.921875 -36.84375 "/></g></g></g><g fill="#0d203b" fill-opacity="1"><g transform="translate(211.89624, 210.746053)"><g><path d="M 41.828125 -50.0625 L 41.828125 0 L 31.78125 0 L 31.78125 -4.1875 C 29.164062 -1.03125 25.382812 0.546875 20.4375 0.546875 C 17.019531 0.546875 13.925781 -0.21875 11.15625 -1.75 C 8.394531 -3.28125 6.226562 -5.460938 4.65625 -8.296875 C 3.082031 -11.128906 2.296875 -14.414062 2.296875 -18.15625 C 2.296875 -21.882812 3.082031 -25.164062 4.65625 -28 C 6.226562 -30.832031 8.394531 -33.015625 11.15625 -34.546875 C 13.925781 -36.078125 17.019531 -36.84375 20.4375 -36.84375 C 25.070312 -36.84375 28.695312 -35.378906 31.3125 -32.453125 L 31.3125 -50.0625 Z M 22.265625 -8.09375 C 24.921875 -8.09375 27.125 -9.003906 28.875 -10.828125 C 30.632812 -12.648438 31.515625 -15.09375 31.515625 -18.15625 C 31.515625 -21.207031 30.632812 -23.644531 28.875 -25.46875 C 27.125 -27.289062 24.921875 -28.203125 22.265625 -28.203125 C 19.566406 -28.203125 17.335938 -27.289062 15.578125 -25.46875 C 13.828125 -23.644531 12.953125 -21.207031 12.953125 -18.15625 C 12.953125 -15.09375 13.828125 -12.648438 15.578125 -10.828125 C 17.335938 -9.003906 19.566406 -8.09375 22.265625 -8.09375 Z M 22.265625 -8.09375 "/></g></g></g><g fill="#0d203b" fill-opacity="1"><g transform="translate(258.584122, 210.746053)"><g><path d="M 40.890625 -36.296875 L 24.484375 2.21875 C 22.828125 6.40625 20.769531 9.351562 18.3125 11.0625 C 15.863281 12.769531 12.910156 13.625 9.453125 13.625 C 7.554688 13.625 5.6875 13.332031 3.84375 12.75 C 2 12.164062 0.492188 11.359375 -0.671875 10.328125 L 3.171875 2.828125 C 3.984375 3.546875 4.914062 4.109375 5.96875 4.515625 C 7.03125 4.921875 8.078125 5.125 9.109375 5.125 C 10.546875 5.125 11.710938 4.773438 12.609375 4.078125 C 13.515625 3.378906 14.328125 2.222656 15.046875 0.609375 L 15.1875 0.265625 L -0.546875 -36.296875 L 10.328125 -36.296875 L 20.515625 -11.671875 L 30.765625 -36.296875 Z M 40.890625 -36.296875 "/></g></g></g><g fill="#45cb7b" fill-opacity="1"><g transform="translate(298.936549, 210.746053)"><g><path d="M 5.59375 -47.234375 L 16.53125 -47.234375 L 16.53125 0 L 5.59375 0 Z M 5.59375 -47.234375 "/></g></g></g><g fill="#45cb7b" fill-opacity="1"><g transform="translate(321.066062, 210.746053)"><g><path d="M 28.265625 -1.75 C 27.234375 -0.988281 25.960938 -0.414062 24.453125 -0.03125 C 22.953125 0.351562 21.367188 0.546875 19.703125 0.546875 C 15.378906 0.546875 12.035156 -0.554688 9.671875 -2.765625 C 7.316406 -4.972656 6.140625 -8.210938 6.140625 -12.484375 L 6.140625 -27.390625 L 0.546875 -27.390625 L 0.546875 -35.484375 L 6.140625 -35.484375 L 6.140625 -44.328125 L 16.671875 -44.328125 L 16.671875 -35.484375 L 25.703125 -35.484375 L 25.703125 -27.390625 L 16.671875 -27.390625 L 16.671875 -12.609375 C 16.671875 -11.085938 17.0625 -9.910156 17.84375 -9.078125 C 18.632812 -8.242188 19.75 -7.828125 21.1875 -7.828125 C 22.851562 -7.828125 24.269531 -8.273438 25.4375 -9.171875 Z M 28.265625 -1.75 "/></g></g></g><g clip-path="url(#6312a91b1b)"><path fill="#0d203b" d="M 58.953125 227.898438 C 52.867188 227.898438 27.136719 196.46875 27.136719 178.925781 C 27.136719 161.382812 41.410156 147.109375 58.953125 147.109375 C 76.5 147.109375 90.769531 161.382812 90.769531 178.925781 C 90.769531 196.46875 65.042969 227.898438 58.953125 227.898438 Z M 58.953125 161.761719 C 49.492188 161.761719 41.789062 169.460938 41.789062 178.925781 C 41.789062 188.390625 49.492188 196.089844 58.953125 196.089844 C 68.417969 196.089844 76.117188 188.390625 76.117188 178.925781 C 76.117188 169.460938 68.417969 161.761719 58.953125 161.761719 Z M 58.953125 161.761719 " fill-opacity="1" fill-rule="nonzero"/></g><g clip-path="url(#83eb217779)"><g clip-path="url(#7396e35e66)"><g clip-path="url(#3ac3da6e61)"><path fill="#45cb7b" d="M 71.953125 204.828125 L 87.875 223.75 C 89.453125 225.625 92.253906 225.863281 94.128906 224.289062 C 96.003906 222.710938 96.246094 219.910156 94.667969 218.035156 L 78.753906 199.125 C 82.667969 194.664062 85.246094 188.957031 85.792969 182.589844 C 87.164062 166.710938 75.382812 152.707031 59.5 151.339844 C 43.621094 149.972656 29.621094 161.753906 28.25 177.632812 C 26.882812 193.511719 38.664062 207.515625 54.542969 208.882812 C 60.871094 209.429688 66.898438 207.886719 71.953125 204.828125 Z M 58.738281 160.183594 C 69.738281 161.132812 77.898438 170.832031 76.949219 181.828125 C 76.003906 192.828125 66.304688 200.988281 55.304688 200.039062 C 44.304688 199.09375 36.144531 189.394531 37.09375 178.394531 C 38.042969 167.394531 47.742188 159.234375 58.738281 160.183594 Z M 58.738281 160.183594 " fill-opacity="1" fill-rule="evenodd"/></g></g></g><g clip-path="url(#092c94ac6c)"><g clip-path="url(#675654d3bd)"><path fill="#0d203b" d="M 27.136719 147.027344 L 90.847656 147.027344 L 90.847656 209.757812 L 27.136719 209.757812 Z M 27.136719 147.027344 " fill-opacity="1" fill-rule="nonzero"/></g></g><g clip-path="url(#a6248e2728)"><g clip-path="url(#e810cf36d0)"><path stroke-linecap="butt" transform="matrix(0.75, 0, 0, 0.75, 27.138152, 147.032743)" fill="none" stroke-linejoin="miter" d="M 42.419964 -0.00199086 C 18.99288 -0.00199086 -0.00191132 18.721968 -0.00191132 41.815718 C -0.00191132 64.909468 18.99288 83.628218 42.419964 83.628218 C 65.852255 83.628218 84.841839 64.909468 84.841839 41.815718 C 84.841839 18.721968 65.852255 -0.00199086 42.419964 -0.00199086 Z M 42.419964 -0.00199086 " stroke="#000000" stroke-width="0.2" stroke-opacity="1" stroke-miterlimit="4"/></g></g><g clip-path="url(#1fcaf30585)"><g clip-path="url(#2e9eb9f2e2)"><path fill="#ffffff" d="M 37.757812 157.191406 L 80.160156 157.191406 L 80.160156 199.597656 L 37.757812 199.597656 Z M 37.757812 157.191406 " fill-opacity="1" fill-rule="nonzero"/></g></g></svg>